Coordinates
version=1
nRows=15
nColumns=63
inDegrees=yes

Units are S.I. units (second, meters, Newtons, ...)
If the header above contains a line with 'inDegrees', this indicates whether rotational values are in degrees (yes) or radians (no).

endheader
time	pelvis_tilt	pelvis_list	pelvis_rotation	pelvis_tx	pelvis_ty	pelvis_tz	hip_flexion_r	hip_adduction_r	hip_rotation_r	knee_angle_r	knee_angle_r_beta	ankle_angle_r	subtalar_angle_r	mtp_angle_r	hip_flexion_l	hip_adduction_l	hip_rotation_l	knee_angle_l	knee_angle_l_beta	ankle_angle_l	subtalar_angle_l	mtp_angle_l	L5_S1_Flex_Ext	L5_S1_Lat_Bending	L5_S1_axial_rotation	L4_L5_Flex_Ext	L4_L5_Lat_Bending	L4_L5_axial_rotation	L3_L4_Flex_Ext	L3_L4_Lat_Bending	L3_L4_axial_rotation	L2_L3_Flex_Ext	L2_L3_Lat_Bending	L2_L3_axial_rotation	L1_L2_Flex_Ext	L1_L2_Lat_Bending	L1_L2_axial_rotation	L1_T12_Flex_Ext	L1_T12_Lat_Bending	L1_T12_axial_rotation	Abs_r3	Abs_r2	Abs_r1	Abs_t1	Abs_t2	neck_flexion	neck_bending	neck_rotation	arm_flex_r	arm_add_r	arm_rot_r	elbow_flex_r	pro_sup_r	wrist_flex_r	wrist_dev_r	arm_flex_l	arm_add_l	arm_rot_l	elbow_flex_l	pro_sup_l	wrist_flex_l	wrist_dev_l
0.000000	-2.042702	-4.258894	92.071163	0.231541	0.983039	0.502718	3.368692	-1.730318	-7.915139	5.694390	0.099386	21.239496	10.574384	0.000000	2.170380	2.160883	-7.048207	1.179031	0.020578	20.829508	5.039840	0.000000	0.180928	-0.379589	0.856787	0.336002	-0.504853	0.910337	0.297247	-0.922932	0.910337	0.206783	-0.922932	0.749689	0.168010	-0.774057	0.696140	0.103382	-0.587983	0.642591	1.292352	-4.293984	4.765195	0.000000	0.000000	27.782630	2.760799	3.014058	8.291110	-28.142554	58.265156	12.283906	10.546847	-6.921727	-2.487369	5.944565	-38.622576	150.298633	8.576318	46.566835	5.023297	1.285441
0.016949	-2.638893	-4.360936	91.724999	0.232468	0.982578	0.500765	3.196728	-2.430930	-8.629718	5.889227	0.102786	21.620674	12.369493	0.000000	2.085348	2.757163	-8.357625	1.147734	0.020032	21.571679	6.492211	0.000000	0.199023	-0.495710	0.941791	0.369606	-0.659295	1.000653	0.326975	-1.205270	1.000653	0.227464	-1.205270	0.824067	0.184813	-1.010853	0.765205	0.113722	-0.767855	0.706343	1.421603	-5.607574	5.237961	0.000000	0.000000	27.858073	3.467973	1.315343	7.859639	-27.516180	58.867397	11.897170	10.401401	-6.584653	-2.759457	6.045491	-39.424943	157.961815	8.341886	33.636657	4.573618	2.478515
0.033898	-3.112024	-4.449960	91.505850	0.233093	0.982162	0.499283	3.066577	-2.991414	-9.227611	6.038795	0.105397	21.947744	13.803725	0.000000	2.035159	3.235662	-9.374504	1.114645	0.019454	22.090922	7.671575	0.000000	0.212629	-0.588191	1.008596	0.394873	-0.782295	1.071634	0.349328	-1.430128	1.071634	0.243014	-1.430128	0.882522	0.197447	-1.199440	0.819484	0.121496	-0.911108	0.756447	1.518788	-6.653738	5.609510	0.000000	0.000000	27.920385	4.006157	-0.080884	7.538351	-27.004451	59.169836	11.654769	10.368731	-6.355203	-2.898440	6.175087	-40.052526	162.027212	8.287105	23.975650	4.041985	3.338054
0.050847	-3.472064	-4.528044	91.402834	0.233442	0.981789	0.498238	2.976574	-3.424007	-9.723939	6.149790	0.107334	22.222698	14.908240	0.000000	2.019084	3.605940	-10.127479	1.082580	0.018895	22.411206	8.602817	0.000000	0.222305	-0.658978	1.058383	0.412843	-0.876441	1.124532	0.365225	-1.602240	1.124532	0.254073	-1.602240	0.926085	0.206433	-1.343789	0.859936	0.127025	-1.020757	0.793787	1.587904	-7.454495	5.886410	0.000000	0.000000	27.970718	4.390346	-1.199047	7.325768	-26.590252	59.253407	11.536334	10.427830	-6.218293	-2.922400	6.337645	-40.505452	162.962921	8.381028	17.248499	3.445453	3.896895
0.067797	-3.728984	-4.597264	91.405072	0.233542	0.981455	0.497592	2.925059	-3.740946	-10.133825	6.228907	0.108715	22.447525	15.714195	0.000000	2.036397	3.877559	-10.645187	1.054354	0.018402	22.556496	9.310823	0.000000	0.228612	-0.710018	1.092333	0.424555	-0.944324	1.160604	0.375586	-1.726337	1.160604	0.261280	-1.726337	0.955791	0.212289	-1.447868	0.887521	0.130629	-1.099817	0.819250	1.632950	-8.031862	6.075229	0.000000	0.000000	28.010226	4.635534	-2.063572	7.220409	-26.256465	59.199045	11.521493	10.557690	-6.158839	-2.849420	6.537460	-40.783850	161.237043	8.592708	13.119893	2.801074	4.187878
0.084746	-3.892755	-4.659699	91.501685	0.233419	0.981157	0.497309	2.910368	-3.954469	-10.472390	6.282840	0.109656	22.624218	16.252749	0.000000	2.086371	4.060077	-10.956263	1.032784	0.018025	22.550760	9.820478	0.000000	0.232108	-0.743256	1.111627	0.431047	-0.988530	1.181103	0.381330	-1.807152	1.181103	0.265276	-1.807152	0.972673	0.215535	-1.515648	0.903197	0.132626	-1.151303	0.833720	1.657922	-8.407860	6.182534	0.000000	0.000000	28.040062	4.756715	-2.698882	7.220793	-25.985976	59.087686	11.589878	10.737304	-6.161760	-2.697582	6.778826	-40.887848	157.317674	8.891196	11.254517	2.125905	4.243843
0.101695	-3.973347	-4.717424	91.681793	0.233097	0.980891	0.497352	2.930837	-4.076813	-10.754755	6.318285	0.110275	22.754768	16.555063	0.000000	2.168279	4.163057	-11.089343	1.020683	0.017814	22.417965	10.156667	0.000000	0.233353	-0.760640	1.117445	0.433360	-1.011651	1.187285	0.383376	-1.849419	1.187285	0.266699	-1.849419	0.977764	0.216692	-1.551096	0.907924	0.133338	-1.178231	0.838083	1.666818	-8.604507	6.214892	0.000000	0.000000	28.061379	4.768885	-3.129404	7.325441	-25.761667	59.000263	11.721117	10.945665	-6.211972	-2.484968	7.066038	-40.817573	151.672914	9.245545	11.317061	1.436999	4.097627
0.118644	-3.980729	-4.772517	91.934516	0.232603	0.980655	0.497685	2.984806	-4.120215	-10.996043	6.341937	0.110688	22.841165	16.652293	0.000000	2.281395	4.196058	-11.073063	1.020869	0.017818	22.182077	10.344275	0.000000	0.232908	-0.764115	1.110968	0.432533	-1.016273	1.180403	0.382644	-1.857869	1.180403	0.266190	-1.857869	0.972097	0.216278	-1.558183	0.902661	0.133083	-1.183614	0.833226	1.663635	-8.643821	6.178870	0.000000	0.000000	28.075330	4.687037	-3.379561	7.532873	-25.566423	59.017712	11.894842	11.161765	-6.294392	-2.229661	7.403391	-40.573155	144.770862	9.624807	12.972210	0.751412	3.782070
0.135593	-3.924873	-4.827055	92.248976	0.231963	0.980445	0.498270	3.070610	-4.096914	-11.211376	6.360491	0.111012	22.885401	16.575601	0.000000	2.424990	4.168641	-10.936059	1.036155	0.018084	21.867063	10.408188	0.000000	0.231331	-0.755629	1.093377	0.429604	-1.004986	1.161713	0.380053	-1.837236	1.161713	0.264388	-1.837236	0.956705	0.214814	-1.540878	0.888369	0.132182	-1.170469	0.820033	1.652371	-8.547823	6.081036	0.000000	0.000000	28.083068	4.526166	-3.473778	7.841608	-25.383128	59.220968	12.090682	11.364596	-6.393936	-1.949743	7.795177	-40.154720	137.079616	9.998034	15.884652	0.086196	3.330010
0.152542	-3.815749	-4.883116	92.614292	0.231202	0.980258	0.499072	3.186587	-4.019147	-11.415874	6.380642	0.111363	22.889468	16.356143	0.000000	2.598340	4.090367	-10.706966	1.069359	0.018664	21.496890	10.373291	0.000000	0.229182	-0.737127	1.065854	0.425614	-0.980379	1.132469	0.376523	-1.792251	1.132469	0.261932	-1.792251	0.932622	0.212818	-1.503150	0.866006	0.130955	-1.141810	0.799390	1.637023	-8.338531	5.927958	0.000000	0.000000	28.085747	4.301267	-3.436480	8.250167	-25.194666	59.690966	12.288267	11.533151	-6.495523	-1.663296	8.245693	-39.562397	129.067275	10.334278	19.719073	-0.541593	2.774287
0.169492	-3.663328	-4.942776	93.019586	0.230346	0.980091	0.500053	3.331075	-3.899150	-11.624660	6.409085	0.111860	22.855356	16.025080	0.000000	2.800715	3.970796	-10.414420	1.123295	0.019605	21.095525	10.264469	0.000000	0.227021	-0.710557	1.029578	0.421601	-0.945041	1.093926	0.372973	-1.727648	1.093926	0.259462	-1.727648	0.900880	0.210812	-1.448968	0.836532	0.129720	-1.100653	0.772183	1.621589	-8.037964	5.726202	0.000000	0.000000	28.084519	4.027333	-3.292091	8.757070	-24.983920	60.508640	12.467226	11.646422	-6.584069	-1.388403	8.759231	-38.796314	121.201937	10.602592	24.140162	-1.114901	2.147739
0.186441	-3.492353	-5.029114	93.470185	0.229454	0.979883	0.501128	3.510534	-3.765548	-11.825290	6.441643	0.112428	22.777065	15.524859	0.000000	3.056099	3.836547	-10.010574	1.223113	0.021347	20.697449	10.002077	0.000000	0.229810	-0.683257	0.962386	0.426781	-0.908732	1.022535	0.377555	-1.661272	1.022535	0.262650	-1.661272	0.842087	0.213402	-1.393299	0.781938	0.131314	-1.058366	0.721789	1.641513	-7.729145	5.352500	0.000000	0.000000	28.084019	3.800250	-3.145951	9.414663	-24.689665	61.689716	12.634784	11.654322	-6.432373	-1.029747	9.315151	-37.870755	115.598414	10.753639	27.063542	-1.447665	1.869034
0.203390	-3.297482	-5.133540	93.941216	0.228493	0.979675	0.502296	3.727980	-3.628535	-12.251943	6.536035	0.114075	22.660580	15.188769	0.000000	3.353963	3.679342	-9.817821	1.362016	0.023772	20.393028	10.008703	0.000000	0.234409	-0.650609	0.892123	0.435321	-0.865311	0.947881	0.385111	-1.581892	0.947881	0.267906	-1.581892	0.780608	0.217672	-1.326723	0.724850	0.133941	-1.007794	0.669092	1.674362	-7.359824	4.961722	0.000000	0.000000	28.085540	3.512505	-2.925002	10.206851	-24.343516	63.986938	12.644477	11.409821	-6.184491	-0.849171	9.994819	-36.717783	111.911462	10.649597	29.912827	-1.761628	1.390597
0.220339	-3.094415	-5.250604	94.398743	0.227546	0.979465	0.503519	3.974343	-3.492534	-12.733910	6.681540	0.116615	22.488307	14.839113	0.000000	3.679130	3.516341	-9.651169	1.528740	0.026682	20.155584	9.955670	0.000000	0.240352	-0.615575	0.825462	0.446357	-0.818715	0.877054	0.394874	-1.496709	0.877054	0.274698	-1.496709	0.722280	0.223191	-1.255280	0.670688	0.137337	-0.953525	0.619097	1.716809	-6.963505	4.590974	0.000000	0.000000	28.090285	3.199628	-2.654535	11.108679	-23.909973	67.296104	12.492351	11.046548	-5.967213	-0.866478	10.796637	-35.358380	110.262557	10.285303	32.532985	-2.050033	0.756461
0.237288	-2.875329	-5.374070	94.894594	0.226514	0.979276	0.504796	4.229763	-3.359474	-13.358196	6.869811	0.119901	22.284301	14.540518	0.000000	4.032648	3.343472	-9.360312	1.733602	0.030257	19.975210	9.770607	0.000000	0.246917	-0.577605	0.759632	0.458550	-0.768215	0.807109	0.405660	-1.404389	0.807109	0.282202	-1.404389	0.664678	0.229287	-1.177852	0.617201	0.141089	-0.894710	0.569724	1.763706	-6.533983	4.224847	0.000000	0.000000	28.095274	2.886853	-2.311927	12.088054	-23.428329	70.883581	12.302520	10.722279	-5.713974	-1.037001	11.708152	-33.775284	110.305830	9.668685	35.292987	-2.387177	-0.001295
